# xmcd CD database file
#
# Track frame offsets:
#	150
#	27497
#	46005
#	66236
#	83862
#	105446
#	128392
#	155554
#	164890
#	199935
#	221465
#	234994
#	267077
#
# Disc length: 3792 seconds
#
# Revision: 0
# Processed by: cddbd v1.4PL0 Copyright (c) Steve Scherf et al.
# Submitted via: CDex 1.50Beta5
#
DISCID=ac0ece0d
DTITLE=Papa Bue's Viking Jazz Band - New Orleans Parade
DYEAR=1998
DGENRE=Jazz
TTITLE0=New Orleans Parade
TTITLE1=West End Blues
TTITLE2=Runnin' Wild
TTITLE3=Schlafe mein Prinzchen
TTITLE4=Corrine Corrina
TTITLE5=Red River Valley
TTITLE6=Davenport Blues
TTITLE7=Goin' Home
TTITLE8=I Found A New Baby
TTITLE9=Tivoli Blues
TTITLE10=Camp
TTITLE11=Lord, Lord, Lord
TTITLE12=Wiegenlied
EXTD=YEAR: 1998
EXTT0=
EXTT1=
EXTT2=
EXTT3=
EXTT4=
EXTT5=
EXTT6=
EXTT7=
EXTT8=
EXTT9=
EXTT10=
EXTT11=
EXTT12=
PLAYORDER=
